<?xml version="1.0" encoding="UTF-8"?>
<!DOCTYPE svg PUBLIC "-//W3C//DTD SVG 1.1//EN" "http://www.w3.org/Graphics/SVG/1.1/DTD/svg11.dtd">
<svg xmlns="http://www.w3.org/2000/svg" version="1.1" width="16px" height="16px" style="shape-rendering:geometricPrecision; text-rendering:geometricPrecision; image-rendering:optimizeQuality; fill-rule:evenodd; clip-rule:evenodd" xmlns:xlink="http://www.w3.org/1999/xlink">
<g><path style="opacity:1" fill="#8f0903" d="M 8.5,3.5 C 5.17965,4.76129 4.84632,6.42796 7.5,8.5C 6.83333,9.5 6.16667,10.5 5.5,11.5C 4.39514,10.3995 3.06181,9.73286 1.5,9.5C 2.54341,6.94384 4.21008,4.77717 6.5,3C 7.43677,2.30831 8.10343,2.47498 8.5,3.5 Z"/></g>
<g><path style="opacity:1" fill="#c30901" d="M 8.5,3.5 C 9.83333,5.16667 9.83333,6.83333 8.5,8.5C 8.16667,8.5 7.83333,8.5 7.5,8.5C 4.84632,6.42796 5.17965,4.76129 8.5,3.5 Z"/></g>
<g><path style="opacity:1" fill="#480500" d="M 8.5,3.5 C 9.83333,4.16667 10.8333,5.16667 11.5,6.5C 11.634,8.29152 11.3007,9.95819 10.5,11.5C 9.83333,11.5 9.16667,11.5 8.5,11.5C 9.83333,10.5 9.83333,9.5 8.5,8.5C 9.83333,6.83333 9.83333,5.16667 8.5,3.5 Z"/></g>
<g><path style="opacity:1" fill="#540501" d="M 7.5,8.5 C 7.83333,8.5 8.16667,8.5 8.5,8.5C 9.83333,9.5 9.83333,10.5 8.5,11.5C 7.65225,12.625 6.65225,12.625 5.5,11.5C 6.16667,10.5 6.83333,9.5 7.5,8.5 Z"/></g>
<g><path style="opacity:1" fill="#300301" d="M 11.5,6.5 C 14.1667,8.16667 14.1667,9.83333 11.5,11.5C 11.1667,11.5 10.8333,11.5 10.5,11.5C 11.3007,9.95819 11.634,8.29152 11.5,6.5 Z"/></g>
<g><path style="opacity:1" fill="#2f0100" d="M 1.5,9.5 C 3.06181,9.73286 4.39514,10.3995 5.5,11.5C 6.65225,12.625 7.65225,12.625 8.5,11.5C 9.16667,11.5 9.83333,11.5 10.5,11.5C 10.8333,11.5 11.1667,11.5 11.5,11.5C 7.59051,14.3605 4.25718,13.6938 1.5,9.5 Z"/></g>
</svg>
